<svg width="557" height="350" viewBox="0 0 557 350" fill="none" xmlns="http://www.w3.org/2000/svg">
<g filter="url(#filter0_dddd_70_1178)">
<rect width="579" height="493.5" transform="translate(-51 8)" fill="white"/>
<rect width="579" height="493.5" transform="translate(-51 8)" fill="url(#paint0_linear_70_1178)" fill-opacity="0.32" style="mix-blend-mode:luminosity"/>
<rect opacity="0.5" x="65" y="56" width="139" height="32" fill="#1B2028" fill-opacity="0.2"/>
<rect opacity="0.5" x="228" y="56" width="105" height="32" fill="#1B2028" fill-opacity="0.2"/>
<rect width="131" height="48" transform="translate(357 48)" fill="#E53940"/>
<path d="M377.76 80H374.58V65.72H382.4V68.2H377.76V71.88H382.08V74.36H377.76V80ZM390.234 68.04C389.754 68.04 389.321 68.1533 388.934 68.38C388.561 68.6067 388.241 68.9333 387.974 69.36C387.708 69.7733 387.508 70.28 387.374 70.88C387.241 71.48 387.174 72.1533 387.174 72.9C387.174 73.9133 387.288 74.78 387.514 75.5C387.741 76.2067 388.088 76.7467 388.554 77.12C389.021 77.4933 389.614 77.68 390.334 77.68C390.908 77.68 391.468 77.6133 392.014 77.48C392.574 77.3467 393.154 77.16 393.754 76.92V79.46C393.168 79.7133 392.574 79.9 391.974 80.02C391.374 80.14 390.721 80.2 390.014 80.2C388.588 80.2 387.421 79.9 386.514 79.3C385.608 78.6867 384.934 77.8333 384.494 76.74C384.068 75.6333 383.854 74.3467 383.854 72.88C383.854 71.8 383.994 70.8133 384.274 69.92C384.554 69.0133 384.968 68.2333 385.514 67.58C386.061 66.9267 386.728 66.42 387.514 66.06C388.314 65.7 389.228 65.52 390.254 65.52C390.921 65.52 391.621 65.6133 392.354 65.8C393.101 65.9733 393.748 66.2133 394.294 66.52L393.274 68.98C392.781 68.7267 392.281 68.5067 391.774 68.32C391.281 68.1333 390.768 68.04 390.234 68.04ZM399.065 67.9C399.065 68.4333 399.045 68.9467 399.005 69.44C398.978 69.9333 398.951 70.28 398.925 70.48H399.085C399.311 70.1067 399.565 69.8067 399.845 69.58C400.138 69.34 400.465 69.1667 400.825 69.06C401.185 68.94 401.571 68.88 401.985 68.88C402.705 68.88 403.338 69.02 403.885 69.3C404.445 69.58 404.885 70.0133 405.205 70.6C405.525 71.1867 405.685 71.9467 405.685 72.88V80H402.465V73.62C402.465 72.8333 402.345 72.2467 402.105 71.86C401.878 71.46 401.518 71.26 401.025 71.26C400.531 71.26 400.138 71.4 399.845 71.68C399.551 71.96 399.345 72.3667 399.225 72.9C399.118 73.4333 399.065 74.0867 399.065 74.86V80H395.865V64.8H399.065V67.9ZM415.828 80H412.648V65.72H420.468V68.2H415.828V71.88H420.148V74.36H415.828V80ZM431.882 74.52C431.882 75.4267 431.762 76.2333 431.522 76.94C431.296 77.6467 430.962 78.2467 430.522 78.74C430.082 79.22 429.542 79.5867 428.902 79.84C428.276 80.08 427.569 80.2 426.782 80.2C426.049 80.2 425.369 80.08 424.742 79.84C424.116 79.5867 423.576 79.22 423.122 78.74C422.682 78.2467 422.336 77.6467 422.082 76.94C421.842 76.2333 421.722 75.4267 421.722 74.52C421.722 73.3067 421.929 72.2867 422.342 71.46C422.756 70.62 423.342 69.98 424.102 69.54C424.862 69.1 425.776 68.88 426.842 68.88C427.829 68.88 428.696 69.1 429.442 69.54C430.202 69.98 430.796 70.62 431.222 71.46C431.662 72.2867 431.882 73.3067 431.882 74.52ZM424.982 74.52C424.982 75.24 425.042 75.8467 425.162 76.34C425.296 76.82 425.496 77.1867 425.762 77.44C426.042 77.68 426.396 77.8 426.822 77.8C427.262 77.8 427.609 77.68 427.862 77.44C428.129 77.1867 428.322 76.82 428.442 76.34C428.562 75.8467 428.622 75.24 428.622 74.52C428.622 73.8 428.562 73.2 428.442 72.72C428.322 72.24 428.122 71.88 427.842 71.64C427.576 71.4 427.229 71.28 426.802 71.28C426.149 71.28 425.682 71.5533 425.402 72.1C425.122 72.6333 424.982 73.44 424.982 74.52ZM439.659 68.88C439.833 68.88 440.019 68.8867 440.219 68.9C440.419 68.9133 440.573 68.9333 440.679 68.96L440.419 71.76C440.313 71.7333 440.173 71.7133 439.999 71.7C439.826 71.6733 439.626 71.66 439.399 71.66C439.106 71.66 438.806 71.7133 438.499 71.82C438.206 71.9133 437.933 72.0667 437.679 72.28C437.439 72.4933 437.239 72.78 437.079 73.14C436.933 73.4867 436.859 73.92 436.859 74.44V80H433.659V69.08H436.059L436.539 70.92H436.699C436.899 70.5467 437.146 70.2067 437.439 69.9C437.733 69.5933 438.066 69.3467 438.439 69.16C438.826 68.9733 439.233 68.88 439.659 68.88ZM451.691 69.08V80H449.271L448.851 78.6H448.671C448.458 78.9733 448.184 79.28 447.851 79.52C447.531 79.7467 447.171 79.9133 446.771 80.02C446.371 80.14 445.958 80.2 445.531 80.2C444.824 80.2 444.198 80.06 443.651 79.78C443.104 79.5 442.671 79.0667 442.351 78.48C442.044 77.8933 441.891 77.1333 441.891 76.2V69.08H445.091V75.46C445.091 76.2333 445.204 76.82 445.431 77.22C445.658 77.62 446.024 77.82 446.531 77.82C447.051 77.82 447.451 77.68 447.731 77.4C448.011 77.12 448.204 76.7133 448.311 76.18C448.431 75.6467 448.491 74.9933 448.491 74.22V69.08H451.691ZM466.372 68.88C467.558 68.88 468.452 69.2 469.052 69.84C469.665 70.4667 469.972 71.48 469.972 72.88V80H466.792V73.62C466.792 72.8333 466.672 72.2467 466.432 71.86C466.205 71.46 465.858 71.26 465.392 71.26C464.725 71.26 464.258 71.54 463.992 72.1C463.725 72.66 463.592 73.4667 463.592 74.52V80H460.392V73.62C460.392 73.1 460.338 72.6667 460.232 72.32C460.138 71.9733 459.992 71.7133 459.792 71.54C459.592 71.3533 459.325 71.26 458.992 71.26C458.538 71.26 458.178 71.4 457.912 71.68C457.658 71.96 457.478 72.3667 457.372 72.9C457.265 73.4333 457.212 74.0867 457.212 74.86V80H454.012V69.08H456.432L456.892 70.48H457.012C457.212 70.1067 457.458 69.8067 457.752 69.58C458.058 69.34 458.405 69.1667 458.792 69.06C459.192 68.94 459.618 68.88 460.072 68.88C460.818 68.88 461.445 69.0133 461.952 69.28C462.472 69.5333 462.878 69.9333 463.172 70.48H463.352C463.672 69.92 464.098 69.5133 464.632 69.26C465.178 69.0067 465.758 68.88 466.372 68.88Z" fill="white"/>
<rect opacity="0.5" x="-51" y="160" width="539" height="296" fill="#1B2028" fill-opacity="0.2"/>
</g>
<defs>
<filter id="filter0_dddd_70_1178" x="-81.3425" y="0.0845661" width="666.07" height="653.128" filterUnits="userSpaceOnUse" color-interpolation-filters="sRGB">
<feFlood flood-opacity="0" result="BackgroundImageFix"/>
<feColorMatrix in="SourceAlpha" type="matrix" values="0 0 0 0 0 0 0 0 0 0 0 0 0 0 0 0 0 0 127 0" result="hardAlpha"/>
<feOffset dx="1.31924" dy="6.59619"/>
<feGaussianBlur stdDeviation="7.25581"/>
<feColorMatrix type="matrix" values="0 0 0 0 0 0 0 0 0 0 0 0 0 0 0 0 0 0 0.08 0"/>
<feBlend mode="normal" in2="BackgroundImageFix" result="effect1_dropShadow_70_1178"/>
<feColorMatrix in="SourceAlpha" type="matrix" values="0 0 0 0 0 0 0 0 0 0 0 0 0 0 0 0 0 0 127 0" result="hardAlpha"/>
<feOffset dx="2.63848" dy="26.3848"/>
<feGaussianBlur stdDeviation="13.852"/>
<feColorMatrix type="matrix" values="0 0 0 0 0 0 0 0 0 0 0 0 0 0 0 0 0 0 0.06 0"/>
<feBlend mode="normal" in2="effect1_dropShadow_70_1178" result="effect2_dropShadow_70_1178"/>
<feColorMatrix in="SourceAlpha" type="matrix" values="0 0 0 0 0 0 0 0 0 0 0 0 0 0 0 0 0 0 127 0" result="hardAlpha"/>
<feOffset dx="6.59619" dy="60.685"/>
<feGaussianBlur stdDeviation="18.4693"/>
<feColorMatrix type="matrix" values="0 0 0 0 0 0 0 0 0 0 0 0 0 0 0 0 0 0 0.04 0"/>
<feBlend mode="normal" in2="effect2_dropShadow_70_1178" result="effect3_dropShadow_70_1178"/>
<feColorMatrix in="SourceAlpha" type="matrix" values="0 0 0 0 0 0 0 0 0 0 0 0 0 0 0 0 0 0 127 0" result="hardAlpha"/>
<feOffset dx="13.1924" dy="108.178"/>
<feGaussianBlur stdDeviation="21.7674"/>
<feColorMatrix type="matrix" values="0 0 0 0 0 0 0 0 0 0 0 0 0 0 0 0 0 0 0.01 0"/>
<feBlend mode="normal" in2="effect3_dropShadow_70_1178" result="effect4_dropShadow_70_1178"/>
<feBlend mode="normal" in="SourceGraphic" in2="effect4_dropShadow_70_1178" result="shape"/>
</filter>
<linearGradient id="paint0_linear_70_1178" x1="49.9138" y1="-41.125" x2="413.592" y2="552.496" gradientUnits="userSpaceOnUse">
<stop stop-color="#FAFCFF" stop-opacity="0"/>
<stop offset="1" stop-color="#0054AD" stop-opacity="0.16"/>
</linearGradient>
</defs>
</svg>
