<svg width="423" height="259" viewBox="0 0 423 259" fill="none" xmlns="http://www.w3.org/2000/svg">
<g filter="url(#filter0_dddd_70_1163)">
<rect width="357" height="404" transform="translate(23 6)" fill="white"/>
<rect width="357" height="404" transform="translate(23 6)" fill="url(#paint0_linear_70_1163)" fill-opacity="0.32" style="mix-blend-mode:luminosity"/>
<path d="M60.968 61H56.432V44.536H51.588V41.008H65.812V44.536H60.968V61ZM72.1232 45.432C73.4858 45.432 74.6618 45.7027 75.6512 46.244C76.6405 46.7853 77.4058 47.5693 77.9472 48.596C78.4885 49.6227 78.7592 50.8827 78.7592 52.376V54.392H69.6592C69.6965 55.568 69.9952 56.492 70.5552 57.164C71.1338 57.836 71.9552 58.172 73.0192 58.172C73.9525 58.172 74.7925 58.0787 75.5392 57.892C76.3045 57.6867 77.0885 57.3787 77.8912 56.968V60.188C77.2005 60.5613 76.4445 60.832 75.6232 61C74.8205 61.1867 73.8218 61.28 72.6272 61.28C71.1712 61.28 69.8738 61 68.7352 60.44C67.6152 59.8613 66.7285 58.9933 66.0752 57.836C65.4405 56.6787 65.1232 55.2227 65.1232 53.468C65.1232 51.676 65.4125 50.192 65.9912 49.016C66.5885 47.8213 67.4098 46.9253 68.4552 46.328C69.5192 45.7307 70.7418 45.432 72.1232 45.432ZM72.2072 48.4C71.5352 48.4 70.9752 48.6613 70.5272 49.184C70.0792 49.7067 69.8178 50.5187 69.7432 51.62H74.6432C74.6432 51.004 74.5498 50.4533 74.3632 49.968C74.1765 49.4827 73.9058 49.1 73.5512 48.82C73.1965 48.54 72.7485 48.4 72.2072 48.4ZM87.4772 61.28C86.0212 61.28 84.7706 61.0093 83.7252 60.468C82.6799 59.908 81.8772 59.0493 81.3172 57.892C80.7572 56.7347 80.4772 55.2507 80.4772 53.44C80.4772 51.5733 80.7852 50.052 81.4012 48.876C82.0359 47.7 82.9039 46.832 84.0052 46.272C85.1252 45.712 86.4039 45.432 87.8412 45.432C88.7746 45.432 89.6426 45.5347 90.4452 45.74C91.2479 45.9453 91.9199 46.188 92.4612 46.468L91.1452 49.604C90.5852 49.3613 90.0719 49.1653 89.6052 49.016C89.1572 48.8667 88.6626 48.792 88.1212 48.792C87.4679 48.792 86.9079 48.9693 86.4412 49.324C85.9932 49.66 85.6479 50.1733 85.4052 50.864C85.1626 51.536 85.0412 52.3853 85.0412 53.412C85.0412 54.42 85.1626 55.26 85.4052 55.932C85.6666 56.5853 86.0212 57.08 86.4692 57.416C86.9359 57.7333 87.4866 57.892 88.1212 57.892C88.8306 57.892 89.5026 57.78 90.1372 57.556C90.7906 57.3133 91.4066 56.9867 91.9852 56.576V60.132C91.3692 60.5427 90.7066 60.832 89.9972 61C89.3066 61.1867 88.4666 61.28 87.4772 61.28ZM99.0165 44.06C99.0165 44.8067 98.9885 45.5253 98.9325 46.216C98.8952 46.9067 98.8578 47.392 98.8205 47.672H99.0445C99.3618 47.1493 99.7165 46.7293 100.109 46.412C100.519 46.076 100.976 45.8333 101.481 45.684C101.985 45.516 102.526 45.432 103.105 45.432C104.113 45.432 104.999 45.628 105.765 46.02C106.549 46.412 107.165 47.0187 107.613 47.84C108.061 48.6613 108.285 49.7253 108.285 51.032V61H103.777V52.068C103.777 50.9667 103.609 50.1453 103.273 49.604C102.955 49.044 102.451 48.764 101.76 48.764C101.07 48.764 100.519 48.96 100.109 49.352C99.6978 49.744 99.4085 50.3133 99.2405 51.06C99.0912 51.8067 99.0165 52.7213 99.0165 53.804V61H94.5365V39.72H99.0165V44.06ZM120.073 45.432C121.604 45.432 122.836 45.88 123.769 46.776C124.721 47.6533 125.197 49.072 125.197 51.032V61H120.717V52.068C120.717 50.9667 120.549 50.1453 120.213 49.604C119.896 49.044 119.382 48.764 118.673 48.764C117.59 48.764 116.862 49.2027 116.489 50.08C116.116 50.9387 115.929 52.18 115.929 53.804V61H111.449V45.712H114.837L115.453 47.672H115.649C115.966 47.1493 116.34 46.7293 116.769 46.412C117.217 46.076 117.721 45.8333 118.281 45.684C118.841 45.516 119.438 45.432 120.073 45.432ZM132.842 45.712V61H128.362V45.712H132.842ZM130.63 39.72C131.283 39.72 131.843 39.8693 132.31 40.168C132.776 40.448 133.01 40.98 133.01 41.764C133.01 42.5293 132.776 43.0613 132.31 43.36C131.843 43.6587 131.283 43.808 130.63 43.808C129.958 43.808 129.388 43.6587 128.922 43.36C128.455 43.0613 128.222 42.5293 128.222 41.764C128.222 40.98 128.455 40.448 128.922 40.168C129.388 39.8693 129.958 39.72 130.63 39.72ZM142.331 61.28C140.875 61.28 139.624 61.0093 138.579 60.468C137.534 59.908 136.731 59.0493 136.171 57.892C135.611 56.7347 135.331 55.2507 135.331 53.44C135.331 51.5733 135.639 50.052 136.255 48.876C136.89 47.7 137.758 46.832 138.859 46.272C139.979 45.712 141.258 45.432 142.695 45.432C143.628 45.432 144.496 45.5347 145.299 45.74C146.102 45.9453 146.774 46.188 147.315 46.468L145.999 49.604C145.439 49.3613 144.926 49.1653 144.459 49.016C144.011 48.8667 143.516 48.792 142.975 48.792C142.322 48.792 141.762 48.9693 141.295 49.324C140.847 49.66 140.502 50.1733 140.259 50.864C140.016 51.536 139.895 52.3853 139.895 53.412C139.895 54.42 140.016 55.26 140.259 55.932C140.52 56.5853 140.875 57.08 141.323 57.416C141.79 57.7333 142.34 57.892 142.975 57.892C143.684 57.892 144.356 57.78 144.991 57.556C145.644 57.3133 146.26 56.9867 146.839 56.576V60.132C146.223 60.5427 145.56 60.832 144.851 61C144.16 61.1867 143.32 61.28 142.331 61.28ZM155.886 45.404C157.772 45.404 159.228 45.852 160.254 46.748C161.3 47.6253 161.822 48.9787 161.822 50.808V61H158.714L157.846 58.928H157.734C157.324 59.4693 156.904 59.9173 156.474 60.272C156.045 60.6267 155.55 60.8787 154.99 61.028C154.43 61.196 153.749 61.28 152.946 61.28C152.106 61.28 151.35 61.112 150.678 60.776C150.025 60.4213 149.502 59.8893 149.11 59.18C148.718 58.452 148.522 57.5373 148.522 56.436C148.522 54.812 149.054 53.6173 150.118 52.852C151.201 52.068 152.788 51.6387 154.878 51.564L157.342 51.48V50.808C157.342 50.0053 157.165 49.4173 156.81 49.044C156.456 48.6707 155.97 48.484 155.354 48.484C154.72 48.484 154.057 48.596 153.366 48.82C152.676 49.0253 151.985 49.2867 151.294 49.604L149.922 46.776C150.744 46.3467 151.649 46.0107 152.638 45.768C153.646 45.5253 154.729 45.404 155.886 45.404ZM156.054 53.972C154.953 54.0093 154.178 54.252 153.73 54.7C153.301 55.148 153.086 55.736 153.086 56.464C153.086 57.0987 153.236 57.556 153.534 57.836C153.852 58.0973 154.262 58.228 154.766 58.228C155.476 58.228 156.082 57.9667 156.586 57.444C157.109 56.9027 157.37 56.1467 157.37 55.176V53.916L156.054 53.972ZM169.47 61H164.99V39.72H169.47V61ZM187.112 61H177.956V58.592L180.28 57.472V44.536L177.956 43.416V41.008H187.112V43.416L184.816 44.536V57.472L187.112 58.592V61ZM197.938 45.432C199.469 45.432 200.701 45.88 201.634 46.776C202.586 47.6533 203.062 49.072 203.062 51.032V61H198.582V52.068C198.582 50.9667 198.414 50.1453 198.078 49.604C197.761 49.044 197.248 48.764 196.538 48.764C195.456 48.764 194.728 49.2027 194.354 50.08C193.981 50.9387 193.794 52.18 193.794 53.804V61H189.314V45.712H192.702L193.318 47.672H193.514C193.832 47.1493 194.205 46.7293 194.634 46.412C195.082 46.076 195.586 45.8333 196.146 45.684C196.706 45.516 197.304 45.432 197.938 45.432ZM214.655 48.848H211.407V61H206.927V48.848H204.883V46.832L206.983 45.712V44.592C206.983 43.2853 207.17 42.2773 207.543 41.568C207.916 40.84 208.476 40.3267 209.223 40.028C209.97 39.7293 210.894 39.58 211.995 39.58C212.76 39.58 213.451 39.6453 214.067 39.776C214.683 39.9067 215.252 40.056 215.775 40.224L214.739 43.276C214.459 43.1827 214.151 43.0987 213.815 43.024C213.498 42.9307 213.143 42.884 212.751 42.884C212.284 42.884 211.939 43.0613 211.715 43.416C211.51 43.7707 211.407 44.2187 211.407 44.76V45.712H214.655V48.848ZM229.662 53.328C229.662 54.5973 229.494 55.7267 229.158 56.716C228.841 57.7053 228.374 58.5453 227.758 59.236C227.142 59.908 226.386 60.4213 225.49 60.776C224.613 61.112 223.624 61.28 222.522 61.28C221.496 61.28 220.544 61.112 219.666 60.776C218.789 60.4213 218.033 59.908 217.398 59.236C216.782 58.5453 216.297 57.7053 215.942 56.716C215.606 55.7267 215.438 54.5973 215.438 53.328C215.438 51.6293 215.728 50.2013 216.306 49.044C216.885 47.868 217.706 46.972 218.77 46.356C219.834 45.74 221.113 45.432 222.606 45.432C223.988 45.432 225.201 45.74 226.246 46.356C227.31 46.972 228.141 47.868 228.738 49.044C229.354 50.2013 229.662 51.6293 229.662 53.328ZM220.002 53.328C220.002 54.336 220.086 55.1853 220.254 55.876C220.441 56.548 220.721 57.0613 221.094 57.416C221.486 57.752 221.981 57.92 222.578 57.92C223.194 57.92 223.68 57.752 224.034 57.416C224.408 57.0613 224.678 56.548 224.846 55.876C225.014 55.1853 225.098 54.336 225.098 53.328C225.098 52.32 225.014 51.48 224.846 50.808C224.678 50.136 224.398 49.632 224.006 49.296C223.633 48.96 223.148 48.792 222.55 48.792C221.636 48.792 220.982 49.1747 220.59 49.94C220.198 50.6867 220.002 51.816 220.002 53.328ZM240.55 45.432C240.793 45.432 241.054 45.4413 241.334 45.46C241.614 45.4787 241.829 45.5067 241.978 45.544L241.614 49.464C241.465 49.4267 241.269 49.3987 241.026 49.38C240.783 49.3427 240.503 49.324 240.186 49.324C239.775 49.324 239.355 49.3987 238.926 49.548C238.515 49.6787 238.133 49.8933 237.778 50.192C237.442 50.4907 237.162 50.892 236.938 51.396C236.733 51.8813 236.63 52.488 236.63 53.216V61H232.15V45.712H235.51L236.182 48.288H236.406C236.686 47.7653 237.031 47.2893 237.442 46.86C237.853 46.4307 238.319 46.0853 238.842 45.824C239.383 45.5627 239.953 45.432 240.55 45.432ZM261.035 45.432C262.696 45.432 263.947 45.88 264.787 46.776C265.645 47.6533 266.075 49.072 266.075 51.032V61H261.623V52.068C261.623 50.9667 261.455 50.1453 261.119 49.604C260.801 49.044 260.316 48.764 259.663 48.764C258.729 48.764 258.076 49.156 257.703 49.94C257.329 50.724 257.143 51.8533 257.143 53.328V61H252.663V52.068C252.663 51.34 252.588 50.7333 252.439 50.248C252.308 49.7627 252.103 49.3987 251.823 49.156C251.543 48.8947 251.169 48.764 250.703 48.764C250.068 48.764 249.564 48.96 249.191 49.352C248.836 49.744 248.584 50.3133 248.435 51.06C248.285 51.8067 248.211 52.7213 248.211 53.804V61H243.731V45.712H247.119L247.763 47.672H247.931C248.211 47.1493 248.556 46.7293 248.967 46.412C249.396 46.076 249.881 45.8333 250.423 45.684C250.983 45.516 251.58 45.432 252.215 45.432C253.26 45.432 254.137 45.6187 254.847 45.992C255.575 46.3467 256.144 46.9067 256.555 47.672H256.807C257.255 46.888 257.852 46.3187 258.599 45.964C259.364 45.6093 260.176 45.432 261.035 45.432ZM275.725 45.404C277.61 45.404 279.066 45.852 280.093 46.748C281.138 47.6253 281.661 48.9787 281.661 50.808V61H278.553L277.685 58.928H277.573C277.162 59.4693 276.742 59.9173 276.313 60.272C275.884 60.6267 275.389 60.8787 274.829 61.028C274.269 61.196 273.588 61.28 272.785 61.28C271.945 61.28 271.189 61.112 270.517 60.776C269.864 60.4213 269.341 59.8893 268.949 59.18C268.557 58.452 268.361 57.5373 268.361 56.436C268.361 54.812 268.893 53.6173 269.957 52.852C271.04 52.068 272.626 51.6387 274.717 51.564L277.181 51.48V50.808C277.181 50.0053 277.004 49.4173 276.649 49.044C276.294 48.6707 275.809 48.484 275.193 48.484C274.558 48.484 273.896 48.596 273.205 48.82C272.514 49.0253 271.824 49.2867 271.133 49.604L269.761 46.776C270.582 46.3467 271.488 46.0107 272.477 45.768C273.485 45.5253 274.568 45.404 275.725 45.404ZM275.893 53.972C274.792 54.0093 274.017 54.252 273.569 54.7C273.14 55.148 272.925 55.736 272.925 56.464C272.925 57.0987 273.074 57.556 273.373 57.836C273.69 58.0973 274.101 58.228 274.605 58.228C275.314 58.228 275.921 57.9667 276.425 57.444C276.948 56.9027 277.209 56.1467 277.209 55.176V53.916L275.893 53.972ZM291.409 57.948C291.857 57.948 292.268 57.9013 292.641 57.808C293.033 57.7147 293.435 57.6027 293.845 57.472V60.58C293.379 60.7667 292.828 60.9253 292.193 61.056C291.577 61.2053 290.849 61.28 290.009 61.28C289.113 61.28 288.311 61.1307 287.601 60.832C286.911 60.5333 286.369 60.02 285.977 59.292C285.585 58.5453 285.389 57.5187 285.389 56.212V48.848H283.569V47.084L285.753 45.684L286.985 42.464H289.869V45.712H293.677V48.848H289.869V56.212C289.869 56.7907 290.009 57.2293 290.289 57.528C290.569 57.808 290.943 57.948 291.409 57.948ZM300.507 45.712V61H296.027V45.712H300.507ZM298.295 39.72C298.948 39.72 299.508 39.8693 299.975 40.168C300.442 40.448 300.675 40.98 300.675 41.764C300.675 42.5293 300.442 43.0613 299.975 43.36C299.508 43.6587 298.948 43.808 298.295 43.808C297.623 43.808 297.054 43.6587 296.587 43.36C296.12 43.0613 295.887 42.5293 295.887 41.764C295.887 40.98 296.12 40.448 296.587 40.168C297.054 39.8693 297.623 39.72 298.295 39.72ZM317.22 53.328C317.22 54.5973 317.052 55.7267 316.716 56.716C316.399 57.7053 315.932 58.5453 315.316 59.236C314.7 59.908 313.944 60.4213 313.048 60.776C312.171 61.112 311.182 61.28 310.08 61.28C309.054 61.28 308.102 61.112 307.224 60.776C306.347 60.4213 305.591 59.908 304.956 59.236C304.34 58.5453 303.855 57.7053 303.5 56.716C303.164 55.7267 302.996 54.5973 302.996 53.328C302.996 51.6293 303.286 50.2013 303.864 49.044C304.443 47.868 305.264 46.972 306.328 46.356C307.392 45.74 308.671 45.432 310.164 45.432C311.546 45.432 312.759 45.74 313.804 46.356C314.868 46.972 315.699 47.868 316.296 49.044C316.912 50.2013 317.22 51.6293 317.22 53.328ZM307.56 53.328C307.56 54.336 307.644 55.1853 307.812 55.876C307.999 56.548 308.279 57.0613 308.652 57.416C309.044 57.752 309.539 57.92 310.136 57.92C310.752 57.92 311.238 57.752 311.592 57.416C311.966 57.0613 312.236 56.548 312.404 55.876C312.572 55.1853 312.656 54.336 312.656 53.328C312.656 52.32 312.572 51.48 312.404 50.808C312.236 50.136 311.956 49.632 311.564 49.296C311.191 48.96 310.706 48.792 310.108 48.792C309.194 48.792 308.54 49.1747 308.148 49.94C307.756 50.6867 307.56 51.816 307.56 53.328ZM328.332 45.432C329.863 45.432 331.095 45.88 332.028 46.776C332.98 47.6533 333.456 49.072 333.456 51.032V61H328.976V52.068C328.976 50.9667 328.808 50.1453 328.472 49.604C328.155 49.044 327.641 48.764 326.932 48.764C325.849 48.764 325.121 49.2027 324.748 50.08C324.375 50.9387 324.188 52.18 324.188 53.804V61H319.708V45.712H323.096L323.712 47.672H323.908C324.225 47.1493 324.599 46.7293 325.028 46.412C325.476 46.076 325.98 45.8333 326.54 45.684C327.1 45.516 327.697 45.432 328.332 45.432Z" fill="#1F2937"/>
<rect opacity="0.5" x="51" y="86" width="301" height="104" fill="#1B2028" fill-opacity="0.2"/>
<rect opacity="0.5" x="51" y="210" width="301" height="104" fill="#1B2028" fill-opacity="0.2"/>
</g>
<defs>
<filter id="filter0_dddd_70_1163" x="0" y="0" width="423" height="525" filterUnits="userSpaceOnUse" color-interpolation-filters="sRGB">
<feFlood flood-opacity="0" result="BackgroundImageFix"/>
<feColorMatrix in="SourceAlpha" type="matrix" values="0 0 0 0 0 0 0 0 0 0 0 0 0 0 0 0 0 0 127 0" result="hardAlpha"/>
<feOffset dx="1" dy="5"/>
<feGaussianBlur stdDeviation="5.5"/>
<feColorMatrix type="matrix" values="0 0 0 0 0 0 0 0 0 0 0 0 0 0 0 0 0 0 0.08 0"/>
<feBlend mode="normal" in2="BackgroundImageFix" result="effect1_dropShadow_70_1163"/>
<feColorMatrix in="SourceAlpha" type="matrix" values="0 0 0 0 0 0 0 0 0 0 0 0 0 0 0 0 0 0 127 0" result="hardAlpha"/>
<feOffset dx="2" dy="20"/>
<feGaussianBlur stdDeviation="10.5"/>
<feColorMatrix type="matrix" values="0 0 0 0 0 0 0 0 0 0 0 0 0 0 0 0 0 0 0.06 0"/>
<feBlend mode="normal" in2="effect1_dropShadow_70_1163" result="effect2_dropShadow_70_1163"/>
<feColorMatrix in="SourceAlpha" type="matrix" values="0 0 0 0 0 0 0 0 0 0 0 0 0 0 0 0 0 0 127 0" result="hardAlpha"/>
<feOffset dx="5" dy="46"/>
<feGaussianBlur stdDeviation="14"/>
<feColorMatrix type="matrix" values="0 0 0 0 0 0 0 0 0 0 0 0 0 0 0 0 0 0 0.04 0"/>
<feBlend mode="normal" in2="effect2_dropShadow_70_1163" result="effect3_dropShadow_70_1163"/>
<feColorMatrix in="SourceAlpha" type="matrix" values="0 0 0 0 0 0 0 0 0 0 0 0 0 0 0 0 0 0 127 0" result="hardAlpha"/>
<feOffset dx="10" dy="82"/>
<feGaussianBlur stdDeviation="16.5"/>
<feColorMatrix type="matrix" values="0 0 0 0 0 0 0 0 0 0 0 0 0 0 0 0 0 0 0.01 0"/>
<feBlend mode="normal" in2="effect3_dropShadow_70_1163" result="effect4_dropShadow_70_1163"/>
<feBlend mode="normal" in="SourceGraphic" in2="effect4_dropShadow_70_1163" result="shape"/>
</filter>
<linearGradient id="paint0_linear_70_1163" x1="30.7759" y1="-33.6667" x2="357.955" y2="368.562" gradientUnits="userSpaceOnUse">
<stop stop-color="#FAFCFF" stop-opacity="0"/>
<stop offset="1" stop-color="#0054AD" stop-opacity="0.16"/>
</linearGradient>
</defs>
</svg>
